<svg xmlns="http://www.w3.org/2000/svg" width="107" height="105" fill="none"><path fill="url(#a)" d="M70 35c0 19.33-15.67 35-35 35S0 54.33 0 35 15.67 0 35 0s35 15.67 35 35Z"/><path fill="url(#b)" d="M90 70c0 19.33-15.67 35-35 35S20 89.33 20 70s15.67-35 35-35 35 15.67 35 35Z"/><path fill="url(#c)" d="M107 35c0 19.33-15.67 35-35 35S37 54.33 37 35 52.67 0 72 0s35 15.67 35 35Z"/><defs><linearGradient id="a" x1="53.5" x2="53.5" y1="0" y2="105" gradientUnits="userSpaceOnUse"><stop stop-color="#00202D"/><stop offset="1" stop-color="#00B198"/></linearGradient><linearGradient id="b" x1="53.5" x2="53.5" y1="0" y2="105" gradientUnits="userSpaceOnUse"><stop stop-color="#188EC8"/><stop offset="1" stop-color="#00F0A3"/></linearGradient><linearGradient id="c" x1="72" x2="72" y1="0" y2="70" gradientUnits="userSpaceOnUse"><stop stop-color="#FB0036"/><stop offset="1" stop-color="#EEEF00"/></linearGradient></defs></svg>